<?xml version="1.0" encoding="utf-8"?>
<!-- Generator: Adobe Illustrator 24.2.3, SVG Export Plug-In . SVG Version: 6.00 Build 0)  -->
<svg version="1.1" id="Layer_1" xmlns="http://www.w3.org/2000/svg" xmlns:xlink="http://www.w3.org/1999/xlink" x="0px" y="0px"
	 viewBox="0 0 512 512" style="enable-background:new 0 0 512 512;" xml:space="preserve">
<style type="text/css">
	.st0{clip-path:url(#SVGID_2_);}
	.st1{fill:#0052FF;}
	.st2{fill:#FFFFFF;}
</style>
<g>
	<g>
		<defs>
			<rect id="SVGID_1_" x="31" y="287.5" width="450" height="80.4"/>
		</defs>
		<clipPath id="SVGID_2_">
			<use xlink:href="#SVGID_1_"  style="overflow:visible;"/>
		</clipPath>
		<g class="st0">
			<path class="st1" d="M121.8,310c-16.3,0-29.1,12.4-29.1,29c0,16.6,12.5,28.9,29.1,28.9c16.7,0,29.3-12.5,29.3-29
				C151.2,322.5,138.7,310,121.8,310z M121.9,355.9c-9.3,0-16.1-7.2-16.1-16.9c0-9.8,6.7-17,16-17c9.4,0,16.2,7.3,16.2,17
				C138.1,348.7,131.2,355.9,121.9,355.9z M154.7,322.6h8.1v44.2h13v-55.8h-21.1V322.6z M60,322c6.8,0,12.2,4.2,14.3,10.5H88
				C85.6,319,74.5,310,60.1,310C43.8,310,31,322.4,31,339c0,16.6,12.5,28.9,29.1,28.9c14.1,0,25.3-9.1,27.8-22.6H74.3
				c-1.9,6.3-7.4,10.6-14.2,10.6c-9.4,0-16-7.2-16-16.9C44.1,329.2,50.6,322,60,322z M401.5,333.6l-9.5-1.4
				c-4.5-0.6-7.8-2.2-7.8-5.7c0-3.9,4.2-5.8,10-5.8c6.3,0,10.3,2.7,11.2,7.1h12.6c-1.4-11.2-10.1-17.8-23.4-17.8
				c-13.7,0-22.8,7-22.8,16.9c0,9.5,6,15,18,16.7l9.5,1.4c4.7,0.6,7.3,2.5,7.3,5.9c0,4.4-4.5,6.3-10.8,6.3c-7.7,0-12-3.1-12.7-7.9
				h-12.8c1.2,10.9,9.7,18.6,25.3,18.6c14.2,0,23.6-6.5,23.6-17.6C419.1,340.4,412.3,335.2,401.5,333.6z M169.3,288.1
				c-4.8,0-8.3,3.5-8.3,8.2s3.6,8.2,8.3,8.2c4.8,0,8.3-3.5,8.3-8.2S174.1,288.1,169.3,288.1z M360,330.2c0-12.1-7.4-20.2-22.9-20.2
				c-14.7,0-22.9,7.4-24.6,18.9h12.9c0.6-4.4,4.1-8.1,11.5-8.1c6.6,0,9.9,2.9,9.9,6.5c0,4.6-6,5.8-13.3,6.6
				c-10,1.1-22.3,4.5-22.3,17.5c0,10,7.5,16.5,19.4,16.5c9.3,0,15.2-3.9,18.1-10c0.4,5.5,4.5,9.1,10.3,9.1h7.6v-11.5H360L360,330.2
				L360,330.2z M347.2,344.2c0,7.4-6.5,12.9-14.4,12.9c-4.9,0-9-2.1-9-6.4c0-5.5,6.6-7,12.7-7.7c5.8-0.5,9.1-1.8,10.7-4.3V344.2z
				 M278.2,310c-7.3,0-13.3,3-17.6,8.1v-30.5h-13v79.3h12.8v-7.3c4.3,5.3,10.5,8.4,17.9,8.4c15.6,0,27.4-12.3,27.4-28.9
				C305.6,322.4,293.6,310,278.2,310z M276.3,355.9c-9.3,0-16.1-7.2-16.1-16.9c0-9.7,6.9-17,16.2-17c9.4,0,16,7.2,16,17
				C292.4,348.7,285.6,355.9,276.3,355.9z M216.5,310c-8.4,0-14,3.5-17.2,8.3v-7.2h-12.9v55.8h13v-30.3c0-8.5,5.4-14.6,13.4-14.6
				c7.5,0,12.1,5.3,12.1,12.9v31.9h13v-32.9C238,319.9,230.7,310,216.5,310z M481,337.2c0-16-11.7-27.2-27.4-27.2
				c-16.7,0-28.9,12.5-28.9,29c0,17.4,13.1,28.9,29.1,28.9c13.5,0,24.1-8,26.8-19.3h-13.5c-1.9,5-6.7,7.8-13.1,7.8
				c-8.3,0-14.6-5.2-16-14.2h43L481,337.2L481,337.2z M438.8,332.9c2.1-7.8,7.9-11.5,14.6-11.5c7.4,0,13,4.2,14.3,11.5H438.8z"/>
		</g>
	</g>
	<g>
		<path class="st1" d="M256,144.1L256,144.1c32.8,0,59.3,26.6,59.3,59.3l0,0c0,32.8-26.6,59.3-59.3,59.3l0,0
			c-32.8,0-59.3-26.6-59.3-59.3l0,0C196.7,170.6,223.2,144.1,256,144.1z"/>
		<path class="st2" d="M256,224.2c-11.5,0-20.9-9.3-20.9-20.9s9.3-20.9,20.9-20.9c10.3,0,18.9,7.5,20.5,17.4h21
			c-1.8-21.4-19.7-38.2-41.5-38.2c-23,0-41.7,18.7-41.7,41.7s18.7,41.7,41.7,41.7c21.9,0,39.8-16.8,41.5-38.2h-21
			C274.9,216.7,266.3,224.2,256,224.2z"/>
	</g>
</g>
</svg>
